<?xml version="1.0" encoding="UTF-8" standalone="no"?>
<!-- Created with Inkscape (http://www.inkscape.org/) -->

<svg
   width="118.41691mm"
   height="108.06289mm"
   viewBox="0 0 118.41691 108.06289"
   version="1.1"
   id="svg1"
   xml:space="preserve"
   inkscape:version="1.4.2 (f4327f4, 2025-05-13)"
   sodipodi:docname="System_OS.svg"
   inkscape:export-filename="System_OS.pdf"
   inkscape:export-xdpi="96"
   inkscape:export-ydpi="96"
   xmlns:inkscape="http://www.inkscape.org/namespaces/inkscape"
   xmlns:sodipodi="http://sodipodi.sourceforge.net/DTD/sodipodi-0.dtd"
   xmlns="http://www.w3.org/2000/svg"
   xmlns:svg="http://www.w3.org/2000/svg"><sodipodi:namedview
     id="namedview1"
     pagecolor="#505050"
     bordercolor="#eeeeee"
     borderopacity="1"
     inkscape:showpageshadow="0"
     inkscape:pageopacity="0"
     inkscape:pagecheckerboard="0"
     inkscape:deskcolor="#505050"
     inkscape:document-units="mm"
     inkscape:zoom="1.5307255"
     inkscape:cx="187.16615"
     inkscape:cy="93.746398"
     inkscape:window-width="2560"
     inkscape:window-height="1417"
     inkscape:window-x="2552"
     inkscape:window-y="-2"
     inkscape:window-maximized="1"
     inkscape:current-layer="g1"><inkscape:page
       x="0"
       y="0"
       width="118.41691"
       height="108.06289"
       id="page2"
       margin="0"
       bleed="0" /></sodipodi:namedview><defs
     id="defs1"><clipPath
       clipPathUnits="userSpaceOnUse"
       id="clipPath3"><path
         d="M 0,1.2207e-4 H 960 V 540.00012 H 0 Z"
         clip-rule="evenodd"
         id="path3" /></clipPath><clipPath
       clipPathUnits="userSpaceOnUse"
       id="clipPath4"><path
         d="M 1.4305e-5,1.2207e-4 H 960.00001 V 42.520122 H 1.4305e-5 Z"
         transform="matrix(0.00104167,0,0,-0.02351834,0,1.0000029)"
         clip-rule="evenodd"
         id="path4" /></clipPath><clipPath
       clipPathUnits="userSpaceOnUse"
       id="clipPath5"><path
         d="M 1.4305e-5,488.98 H 960.00001 v 51.024 H 1.4305e-5 Z"
         transform="matrix(0.00104167,0,0,-0.01959862,0,10.583333)"
         clip-rule="evenodd"
         id="path5" /></clipPath><clipPath
       clipPathUnits="userSpaceOnUse"
       id="clipPath6"><path
         d="M 1.4305e-5,0 H 960.00001 V 540 H 1.4305e-5 Z"
         transform="matrix(1,0,0,-1,-49.728001,452.06001)"
         clip-rule="evenodd"
         id="path6" /></clipPath><clipPath
       clipPathUnits="userSpaceOnUse"
       id="clipPath7"><path
         d="M 1.4305e-5,0 H 960.00001 V 540 H 1.4305e-5 Z"
         transform="matrix(1,0,0,-1,-117.29001,452.06001)"
         clip-rule="evenodd"
         id="path7" /></clipPath><clipPath
       clipPathUnits="userSpaceOnUse"
       id="clipPath8"><path
         d="M 1.4305e-5,0 H 960.00001 V 540 H 1.4305e-5 Z"
         transform="matrix(1,0,0,-1,-127.97001,452.06001)"
         clip-rule="evenodd"
         id="path8" /></clipPath><clipPath
       clipPathUnits="userSpaceOnUse"
       id="clipPath9"><path
         d="M 1.4305e-5,0 H 960.00001 V 540 H 1.4305e-5 Z"
         transform="matrix(1,0,0,-1,-49.728001,405.10001)"
         clip-rule="evenodd"
         id="path9" /></clipPath><clipPath
       clipPathUnits="userSpaceOnUse"
       id="clipPath10"><path
         d="M 1.4305e-5,0 H 960.00001 V 540 H 1.4305e-5 Z"
         transform="matrix(1,0,0,-1,-67.728002,405.10001)"
         clip-rule="evenodd"
         id="path10" /></clipPath><clipPath
       clipPathUnits="userSpaceOnUse"
       id="clipPath11"><path
         d="M 1.4305e-5,0 H 960.00001 V 540 H 1.4305e-5 Z"
         transform="matrix(1,0,0,-1,-109.01001,405.10001)"
         clip-rule="evenodd"
         id="path11" /></clipPath><clipPath
       clipPathUnits="userSpaceOnUse"
       id="clipPath12"><path
         d="M 1.4305e-5,0 H 960.00001 V 540 H 1.4305e-5 Z"
         transform="matrix(1,0,0,-1,-115.73001,405.10001)"
         clip-rule="evenodd"
         id="path12" /></clipPath><clipPath
       clipPathUnits="userSpaceOnUse"
       id="clipPath13"><path
         d="M 1.4305e-5,0 H 960.00001 V 540 H 1.4305e-5 Z"
         transform="matrix(1,0,0,-1,-67.728002,383.50001)"
         clip-rule="evenodd"
         id="path13" /></clipPath><clipPath
       clipPathUnits="userSpaceOnUse"
       id="clipPath14"><path
         d="M 1.4305e-5,0 H 960.00001 V 540 H 1.4305e-5 Z"
         transform="matrix(1,0,0,-1,-116.45001,383.50001)"
         clip-rule="evenodd"
         id="path14" /></clipPath><clipPath
       clipPathUnits="userSpaceOnUse"
       id="clipPath15"><path
         d="M 1.4305e-5,0 H 960.00001 V 540 H 1.4305e-5 Z"
         transform="matrix(1,0,0,-1,-67.728002,361.87001)"
         clip-rule="evenodd"
         id="path15" /></clipPath><clipPath
       clipPathUnits="userSpaceOnUse"
       id="clipPath16"><path
         d="M 1.4305e-5,0 H 960.00001 V 540 H 1.4305e-5 Z"
         transform="matrix(1,0,0,-1,-296.83,361.87001)"
         clip-rule="evenodd"
         id="path16" /></clipPath><clipPath
       clipPathUnits="userSpaceOnUse"
       id="clipPath17"><path
         d="M 1.4305e-5,0 H 960.00001 V 540 H 1.4305e-5 Z"
         transform="matrix(1,0,0,-1,-85.728002,210.53001)"
         clip-rule="evenodd"
         id="path17" /></clipPath><clipPath
       clipPathUnits="userSpaceOnUse"
       id="clipPath18"><path
         d="M 1.4305e-5,0 H 960.00001 V 540 H 1.4305e-5 Z"
         transform="matrix(1,0,0,-1,-103.73001,210.53001)"
         clip-rule="evenodd"
         id="path18" /></clipPath><clipPath
       clipPathUnits="userSpaceOnUse"
       id="clipPath19"><path
         d="M 1.4305e-5,0 H 960.00001 V 540 H 1.4305e-5 Z"
         transform="matrix(1,0,0,-1,-148.61001,210.53001)"
         clip-rule="evenodd"
         id="path19" /></clipPath><clipPath
       clipPathUnits="userSpaceOnUse"
       id="clipPath20"><path
         d="M 1.4305e-5,0 H 960.00001 V 540 H 1.4305e-5 Z"
         transform="matrix(1,0,0,-1,-154.61001,210.53001)"
         clip-rule="evenodd"
         id="path20" /></clipPath><clipPath
       clipPathUnits="userSpaceOnUse"
       id="clipPath21"><path
         d="M 1.4305e-5,0 H 960.00001 V 540 H 1.4305e-5 Z"
         transform="matrix(1,0,0,-1,-386.74001,210.53001)"
         clip-rule="evenodd"
         id="path21" /></clipPath><clipPath
       clipPathUnits="userSpaceOnUse"
       id="clipPath22"><path
         d="M 1.4305e-5,0 H 960.00001 V 540 H 1.4305e-5 Z"
         transform="matrix(1,0,0,-1,-85.728002,186.05001)"
         clip-rule="evenodd"
         id="path22" /></clipPath><clipPath
       clipPathUnits="userSpaceOnUse"
       id="clipPath23"><path
         d="M 1.4305e-5,0 H 960.00001 V 540 H 1.4305e-5 Z"
         transform="matrix(1,0,0,-1,-103.73001,186.05001)"
         clip-rule="evenodd"
         id="path23" /></clipPath><clipPath
       clipPathUnits="userSpaceOnUse"
       id="clipPath24"><path
         d="M 1.4305e-5,0 H 960.00001 V 540 H 1.4305e-5 Z"
         transform="matrix(1,0,0,-1,-328.63001,186.05001)"
         clip-rule="evenodd"
         id="path24" /></clipPath><clipPath
       clipPathUnits="userSpaceOnUse"
       id="clipPath25"><path
         d="M 1.4305e-5,0 H 960.00001 V 540 H 1.4305e-5 Z"
         transform="matrix(1,0,0,-1,-334.63001,186.05001)"
         clip-rule="evenodd"
         id="path25" /></clipPath><clipPath
       clipPathUnits="userSpaceOnUse"
       id="clipPath26"><path
         d="M 1.4305e-5,0 H 960.00001 V 540 H 1.4305e-5 Z"
         transform="matrix(1,0,0,-1,-103.73001,166.61001)"
         clip-rule="evenodd"
         id="path26" /></clipPath><clipPath
       clipPathUnits="userSpaceOnUse"
       id="clipPath27"><path
         d="M 1.4305e-5,0 H 960.00001 V 540 H 1.4305e-5 Z"
         transform="matrix(1,0,0,-1,-186.79,166.61001)"
         clip-rule="evenodd"
         id="path27" /></clipPath><clipPath
       clipPathUnits="userSpaceOnUse"
       id="clipPath28"><path
         d="M 1.4305e-5,0 H 960.00001 V 540 H 1.4305e-5 Z"
         transform="matrix(1,0,0,-1,-49.728001,103.94001)"
         clip-rule="evenodd"
         id="path28" /></clipPath><clipPath
       clipPathUnits="userSpaceOnUse"
       id="clipPath29"><path
         d="M 1.4305e-5,0 H 960.00001 V 540 H 1.4305e-5 Z"
         transform="matrix(1,0,0,-1,-49.728001,82.344002)"
         clip-rule="evenodd"
         id="path29" /></clipPath><clipPath
       clipPathUnits="userSpaceOnUse"
       id="clipPath30"><path
         d="M 1.4305e-5,0 H 960.00001 V 540 H 1.4305e-5 Z"
         transform="matrix(1,0,0,-1,-49.728001,16.392)"
         clip-rule="evenodd"
         id="path30" /></clipPath><clipPath
       clipPathUnits="userSpaceOnUse"
       id="clipPath31"><path
         d="M 1.4305e-5,0 H 960.00001 V 540 H 1.4305e-5 Z"
         transform="matrix(1,0,0,-1,-104.33001,16.392)"
         clip-rule="evenodd"
         id="path31" /></clipPath><clipPath
       clipPathUnits="userSpaceOnUse"
       id="clipPath32"><path
         d="M 1.4305e-5,0 H 960.00001 V 540 H 1.4305e-5 Z"
         transform="matrix(1,0,0,-1,-114.41001,16.392)"
         clip-rule="evenodd"
         id="path32" /></clipPath><clipPath
       clipPathUnits="userSpaceOnUse"
       id="clipPath33"><path
         d="M 1.4305e-5,0 H 960.00001 V 540 H 1.4305e-5 Z"
         transform="matrix(1,0,0,-1,-194.11,16.392)"
         clip-rule="evenodd"
         id="path33" /></clipPath><clipPath
       clipPathUnits="userSpaceOnUse"
       id="clipPath34"><path
         d="M 1.4305e-5,0 H 960.00001 V 540 H 1.4305e-5 Z"
         transform="matrix(1,0,0,-1,-204.07,16.392)"
         clip-rule="evenodd"
         id="path34" /></clipPath><clipPath
       clipPathUnits="userSpaceOnUse"
       id="clipPath35"><path
         d="M 1.4305e-5,0 H 960.00001 V 540 H 1.4305e-5 Z"
         transform="matrix(1,0,0,-1,-228.79,16.392)"
         clip-rule="evenodd"
         id="path35" /></clipPath><clipPath
       clipPathUnits="userSpaceOnUse"
       id="clipPath36"><path
         d="M 1.4305e-5,0 H 960.00001 V 540 H 1.4305e-5 Z"
         transform="matrix(1,0,0,-1,-232.75,16.392)"
         clip-rule="evenodd"
         id="path36" /></clipPath><clipPath
       clipPathUnits="userSpaceOnUse"
       id="clipPath37"><path
         d="M 1.4305e-5,0 H 960.00001 V 540 H 1.4305e-5 Z"
         transform="matrix(1,0,0,-1,-518.64001,16.512)"
         clip-rule="evenodd"
         id="path37" /></clipPath><clipPath
       clipPathUnits="userSpaceOnUse"
       id="clipPath38"><path
         d="M 1.4305e-5,0 H 960.00001 V 540 H 1.4305e-5 Z"
         transform="matrix(1,0,0,-1,-558.84001,16.512)"
         clip-rule="evenodd"
         id="path38" /></clipPath><clipPath
       clipPathUnits="userSpaceOnUse"
       id="clipPath39"><path
         d="M 1.4305e-5,0 H 960.00001 V 540 H 1.4305e-5 Z"
         transform="matrix(1,0,0,-1,-568.08001,16.512)"
         clip-rule="evenodd"
         id="path39" /></clipPath><clipPath
       clipPathUnits="userSpaceOnUse"
       id="clipPath40"><path
         d="M 1.4305e-5,0 H 960.00001 V 540 H 1.4305e-5 Z"
         transform="matrix(1,0,0,-1,-914.40002,16.512)"
         clip-rule="evenodd"
         id="path40" /></clipPath><clipPath
       clipPathUnits="userSpaceOnUse"
       id="clipPath41"><path
         d="m 78.943,234.49 h 224.42 V 347.3 H 78.943 Z"
         transform="matrix(0.00445593,0,0,-0.00886446,-0.35176453,3.0786279)"
         clip-rule="evenodd"
         id="path41" /></clipPath><clipPath
       clipPathUnits="userSpaceOnUse"
       id="clipPath42"><path
         d="M 324.16,234.49 H 549.78 V 362.9 H 324.16 Z"
         transform="matrix(0.00443223,0,0,-0.00778756,-1.436752,2.826104)"
         clip-rule="evenodd"
         id="path42" /></clipPath><clipPath
       clipPathUnits="userSpaceOnUse"
       id="clipPath45"><path
         d="M 1.4305e-5,0 H 960.00001 V 540 H 1.4305e-5 Z"
         transform="matrix(1,0,0,-1,-608.30002,405.10001)"
         clip-rule="evenodd"
         id="path45" /></clipPath><clipPath
       clipPathUnits="userSpaceOnUse"
       id="clipPath46"><path
         d="M 1.4305e-5,0 H 960.00001 V 540 H 1.4305e-5 Z"
         transform="matrix(1,0,0,-1,-636.62002,369.82001)"
         clip-rule="evenodd"
         id="path46" /></clipPath><clipPath
       clipPathUnits="userSpaceOnUse"
       id="clipPath47"><path
         d="M 1.4305e-5,0 H 960.00001 V 540 H 1.4305e-5 Z"
         transform="matrix(1,0,0,-1,-636.62002,353.02001)"
         clip-rule="evenodd"
         id="path47" /></clipPath><clipPath
       clipPathUnits="userSpaceOnUse"
       id="clipPath48"><path
         d="M 1.4305e-5,0 H 960.00001 V 540 H 1.4305e-5 Z"
         transform="matrix(1,0,0,-1,-821.81005,369.60001)"
         clip-rule="evenodd"
         id="path48" /></clipPath><clipPath
       clipPathUnits="userSpaceOnUse"
       id="clipPath49"><path
         d="M 1.4305e-5,0 H 960.00001 V 540 H 1.4305e-5 Z"
         transform="matrix(1,0,0,-1,-850.61005,369.60001)"
         clip-rule="evenodd"
         id="path49" /></clipPath><clipPath
       clipPathUnits="userSpaceOnUse"
       id="clipPath50"><path
         d="M 1.4305e-5,0 H 960.00001 V 540 H 1.4305e-5 Z"
         transform="matrix(1,0,0,-1,-855.31,369.60001)"
         clip-rule="evenodd"
         id="path50" /></clipPath><clipPath
       clipPathUnits="userSpaceOnUse"
       id="clipPath51"><path
         d="M 1.4305e-5,0 H 960.00001 V 540 H 1.4305e-5 Z"
         transform="matrix(1,0,0,-1,-832.13005,352.80001)"
         clip-rule="evenodd"
         id="path51" /></clipPath><clipPath
       clipPathUnits="userSpaceOnUse"
       id="clipPath53"><path
         d="M 1.4305e-5,0 H 960.00001 V 540 H 1.4305e-5 Z"
         transform="matrix(1,0,0,-1,-803.16002,302.78001)"
         clip-rule="evenodd"
         id="path53" /></clipPath><clipPath
       clipPathUnits="userSpaceOnUse"
       id="clipPath57"><path
         d="M 1.4305e-5,0 H 960.00001 V 540 H 1.4305e-5 Z"
         transform="matrix(1,0,0,-1,-608.78002,244.25001)"
         clip-rule="evenodd"
         id="path57" /></clipPath><clipPath
       clipPathUnits="userSpaceOnUse"
       id="clipPath58"><path
         d="M 1.4305e-5,0 H 960.00001 V 540 H 1.4305e-5 Z"
         transform="matrix(1,0,0,-1,-637.13002,208.94001)"
         clip-rule="evenodd"
         id="path58" /></clipPath><clipPath
       clipPathUnits="userSpaceOnUse"
       id="clipPath59"><path
         d="M 1.4305e-5,0 H 960.00001 V 540 H 1.4305e-5 Z"
         transform="matrix(1,0,0,-1,-637.13002,192.14001)"
         clip-rule="evenodd"
         id="path59" /></clipPath><clipPath
       clipPathUnits="userSpaceOnUse"
       id="clipPath60"><path
         d="M 1.4305e-5,0 H 960.00001 V 540 H 1.4305e-5 Z"
         transform="matrix(1,0,0,-1,-822.31,208.73001)"
         clip-rule="evenodd"
         id="path60" /></clipPath><clipPath
       clipPathUnits="userSpaceOnUse"
       id="clipPath61"><path
         d="M 1.4305e-5,0 H 960.00001 V 540 H 1.4305e-5 Z"
         transform="matrix(1,0,0,-1,-851.11,208.73001)"
         clip-rule="evenodd"
         id="path61" /></clipPath><clipPath
       clipPathUnits="userSpaceOnUse"
       id="clipPath62"><path
         d="M 1.4305e-5,0 H 960.00001 V 540 H 1.4305e-5 Z"
         transform="matrix(1,0,0,-1,-855.79,208.73001)"
         clip-rule="evenodd"
         id="path62" /></clipPath><clipPath
       clipPathUnits="userSpaceOnUse"
       id="clipPath63"><path
         d="M 1.4305e-5,0 H 960.00001 V 540 H 1.4305e-5 Z"
         transform="matrix(1,0,0,-1,-866.11,191.93001)"
         clip-rule="evenodd"
         id="path63" /></clipPath><clipPath
       clipPathUnits="userSpaceOnUse"
       id="clipPath65"><path
         d="M 1.4305e-5,0 H 960.00001 V 540 H 1.4305e-5 Z"
         transform="matrix(1,0,0,-1,-805.37005,142.92)"
         clip-rule="evenodd"
         id="path65" /></clipPath><clipPath
       clipPathUnits="userSpaceOnUse"
       id="clipPath67"><path
         d="M 1.4305e-5,0 H 960.00001 V 540 H 1.4305e-5 Z"
         transform="matrix(1,0,0,-1,-608.30002,97.632002)"
         clip-rule="evenodd"
         id="path67" /></clipPath><clipPath
       clipPathUnits="userSpaceOnUse"
       id="clipPath68"><path
         d="M 1.4305e-5,0 H 960.00001 V 540 H 1.4305e-5 Z"
         transform="matrix(1,0,0,-1,-628.10002,97.632002)"
         clip-rule="evenodd"
         id="path68" /></clipPath><clipPath
       clipPathUnits="userSpaceOnUse"
       id="clipPath69"><path
         d="M 1.4305e-5,0 H 960.00001 V 540 H 1.4305e-5 Z"
         transform="matrix(1,0,0,-1,-608.30002,74.832002)"
         clip-rule="evenodd"
         id="path69" /></clipPath><clipPath
       clipPathUnits="userSpaceOnUse"
       id="clipPath70"><path
         d="M 1.4305e-5,0 H 960.00001 V 540 H 1.4305e-5 Z"
         transform="matrix(1,0,0,-1,-628.10002,74.832002)"
         clip-rule="evenodd"
         id="path70" /></clipPath></defs><g
     inkscape:label="Ebene 1"
     inkscape:groupmode="layer"
     id="layer1"
     transform="translate(-431.29979,-39.175979)" /><g
     id="g1"
     inkscape:groupmode="layer"
     inkscape:label="6"
     transform="matrix(0.26458333,0,0,0.26458334,-211.29977,-39.175979)"><g
       id="g42"
       inkscape:export-filename="Cyber_Physical_Systems.png"
       inkscape:export-xdpi="96"
       inkscape:export-ydpi="96"><path
         id="path43"
         d="m 599.71,418.04 c 0,5.61 4.55,10.16 10.16,10.16 h 313.37 c 5.6,0 10.15,-4.55 10.15,-10.16 V 294.36 c 0,-5.61 -4.55,-10.16 -10.15,-10.16 H 609.87 c -5.61,0 -10.16,4.55 -10.16,10.16 z"
         style="fill:none;stroke:#693580;stroke-width:1.5;stroke-linecap:butt;stroke-linejoin:round;stroke-miterlimit:10;stroke-dasharray:none;stroke-opacity:1"
         transform="matrix(1.3333333,0,0,-1.3333333,0,720)" /></g><g
       id="g43"><path
         id="path44"
         d="m 617.14,363.92 c 0,19.99 39.72,36.19 88.71,36.19 48.99,0 88.71,-16.2 88.71,-36.19 0,-19.99 -39.72,-36.19 -88.71,-36.19 -48.99,0 -88.71,16.2 -88.71,36.19 z"
         style="fill:#007e6b;fill-opacity:0.30196;fill-rule:evenodd;stroke:#191919;stroke-width:1.5;stroke-linecap:butt;stroke-linejoin:round;stroke-miterlimit:10;stroke-dasharray:none;stroke-opacity:1"
         transform="matrix(1.3333333,0,0,-1.3333333,0,720)" /></g><g
       id="g44"><text
         id="text44"
         xml:space="preserve"
         transform="matrix(1.3333333,0,0,1.3333333,811.06667,179.86667)"
         clip-path="url(#clipPath45)"><tspan
           id="tspan44"
           style="font-variant:normal;font-weight:normal;font-size:15.96px;font-family:Arial;writing-mode:lr-tb;fill:#191919;fill-opacity:1;fill-rule:nonzero;stroke:none"
           x="0"
           dx="0 0 -0.14364 0.047880001"
           y="0">Systems</tspan></text></g><g
       id="g51"><path
         id="path52"
         d="m 729.6,363.69 c 0,19.99 39.72,36.19 88.71,36.19 48.99,0 88.7,-16.2 88.7,-36.19 0,-19.99 -39.71,-36.19 -88.7,-36.19 -48.99,0 -88.71,16.2 -88.71,36.19 z"
         style="fill:#d18f00;fill-opacity:0.30196;fill-rule:evenodd;stroke:#191919;stroke-width:1.5;stroke-linecap:butt;stroke-linejoin:round;stroke-miterlimit:10;stroke-dasharray:none;stroke-opacity:1"
         transform="matrix(1.3333333,0,0,-1.3333333,0,720)" /></g><g
       id="g52"><text
         id="text52"
         xml:space="preserve"
         transform="matrix(1.3333333,0,0,1.3333333,983.99309,324.13275)"
         clip-path="url(#clipPath53)"><tspan
           id="tspan52"
           style="font-variant:normal;font-weight:normal;font-size:14.04px;font-family:Arial;writing-mode:lr-tb;fill:#6b3881;fill-opacity:1;fill-rule:nonzero;stroke:none"
           x="0"
           dx="0"
           y="0">Cyber Physical Systems</tspan></text></g><g
       id="g47"><text
         id="text47"
         xml:space="preserve"
         transform="matrix(1.3333333,0,0,1.3333333,1095.7467,227.2)"
         clip-path="url(#clipPath48)"><tspan
           id="tspan47"
           style="font-variant:normal;font-weight:normal;font-size:14.04px;font-family:Arial;writing-mode:lr-tb;fill:#191919;fill-opacity:1;fill-rule:nonzero;stroke:none"
           x="0"
           dx="0 -0.056159999"
           y="0">Real</tspan></text><text
         id="text48"
         xml:space="preserve"
         transform="matrix(1.3333333,0,0,1.3333333,1134.1467,227.2)"
         clip-path="url(#clipPath49)"><tspan
           id="tspan48"
           style="font-variant:normal;font-weight:normal;font-size:14.04px;font-family:Arial;writing-mode:lr-tb;fill:#191919;fill-opacity:1;fill-rule:nonzero;stroke:none"
           x="0"
           y="0">-</tspan></text><text
         id="text49"
         xml:space="preserve"
         transform="matrix(1.3333333,0,0,1.3333333,1140.4133,227.2)"
         clip-path="url(#clipPath50)"><tspan
           id="tspan49"
           style="font-variant:normal;font-weight:normal;font-size:14.04px;font-family:Arial;writing-mode:lr-tb;fill:#191919;fill-opacity:1;fill-rule:nonzero;stroke:none"
           x="0"
           dx="0 -0.53351998 0 -0.056159999"
           y="0">Time</tspan></text><text
         id="text50"
         xml:space="preserve"
         transform="matrix(1.3333333,0,0,1.3333333,1109.5067,249.6)"
         clip-path="url(#clipPath51)"><tspan
           id="tspan50"
           style="font-variant:normal;font-weight:normal;font-size:14.04px;font-family:Arial;writing-mode:lr-tb;fill:#191919;fill-opacity:1;fill-rule:nonzero;stroke:none"
           x="0"
           dx="0 0 -0.18252 0.042119998 0.042119998 0 -0.056159999"
           y="0">Systems</tspan></text></g><g
       id="g53"><path
         id="path54"
         d="m 795.8,308.4 -36.4,51.83 1.23,0.86 36.4,-51.83 z m -38.24,50.54 c -0.95,1.35 -0.63,3.22 0.73,4.18 1.35,0.95 3.23,0.62 4.18,-0.74 0.95,-1.35 0.62,-3.22 -0.73,-4.17 -1.36,-0.96 -3.23,-0.63 -4.18,0.73 z"
         style="fill:#6b3881;fill-opacity:1;fill-rule:nonzero;stroke:none"
         transform="matrix(1.3333333,0,0,-1.3333333,0,720)" /></g><g
       id="g54"><path
         id="path55"
         d="m 600.2,257.22 c 0,5.61 4.55,10.15 10.15,10.15 h 313.37 c 5.61,0 10.16,-4.54 10.16,-10.15 V 133.53 c 0,-5.61 -4.55,-10.15 -10.16,-10.15 H 610.35 c -5.6,0 -10.15,4.54 -10.15,10.15 z"
         style="fill:none;stroke:#693580;stroke-width:1.5;stroke-linecap:butt;stroke-linejoin:round;stroke-miterlimit:10;stroke-dasharray:none;stroke-opacity:1"
         transform="matrix(1.3333333,0,0,-1.3333333,0,720)" /></g><g
       id="g55"><path
         id="path56"
         d="m 617.63,203.1 c 0,19.99 39.71,36.19 88.71,36.19 48.99,0 88.7,-16.2 88.7,-36.19 0,-19.99 -39.71,-36.2 -88.7,-36.2 -49,0 -88.71,16.21 -88.71,36.2 z"
         style="fill:#007e6b;fill-opacity:0.30196;fill-rule:evenodd;stroke:#191919;stroke-width:1.5;stroke-linecap:butt;stroke-linejoin:round;stroke-miterlimit:10;stroke-dasharray:none;stroke-opacity:1"
         transform="matrix(1.3333333,0,0,-1.3333333,0,720)" /></g><g
       id="g56"><text
         id="text56"
         xml:space="preserve"
         transform="matrix(1.3333333,0,0,1.3333333,811.70667,394.33333)"
         clip-path="url(#clipPath57)"><tspan
           id="tspan56"
           style="font-variant:normal;font-weight:normal;font-size:15.96px;font-family:Arial;writing-mode:lr-tb;fill:#191919;fill-opacity:1;fill-rule:nonzero;stroke:none"
           x="0"
           dx="0 -0.056899998"
           y="0">OS</tspan></text></g><g
       id="g64"><text
         id="text64"
         xml:space="preserve"
         transform="matrix(1.3333333,0,0,1.3333333,1073.8267,529.44)"
         clip-path="url(#clipPath65)"><tspan
           id="tspan64"
           style="font-variant:normal;font-weight:normal;font-size:14.04px;font-family:Arial;writing-mode:lr-tb;fill:#6b3881;fill-opacity:1;fill-rule:nonzero;stroke:none"
           x="0"
           dx="0 -0.29484001 -0.29484001 0 0 -0.070200004 0 -0.056159999 0 0 0 -0.30888 -0.29484001"
           y="0">RTOS (FreeRTOS)</tspan></text></g><g
       id="g63"><path
         id="path64"
         d="m 730.09,202.86 c 0,19.99 39.71,36.2 88.7,36.2 48.99,0 88.71,-16.21 88.71,-36.2 0,-19.98 -39.72,-36.19 -88.71,-36.19 -48.99,0 -88.7,16.21 -88.7,36.19 z"
         style="fill:#d18f00;fill-opacity:0.30196;fill-rule:evenodd;stroke:#191919;stroke-width:1.5;stroke-linecap:butt;stroke-linejoin:round;stroke-miterlimit:10;stroke-dasharray:none;stroke-opacity:1"
         transform="matrix(1.3333333,0,0,-1.3333333,0,720)" /></g><g
       id="g59"><text
         id="text59"
         xml:space="preserve"
         transform="matrix(1.3333333,0,0,1.3333333,1096.4133,441.69333)"
         clip-path="url(#clipPath60)"><tspan
           id="tspan59"
           style="font-variant:normal;font-weight:normal;font-size:14.04px;font-family:Arial;writing-mode:lr-tb;fill:#191919;fill-opacity:1;fill-rule:nonzero;stroke:none"
           x="0"
           dx="0 -0.056159999"
           y="0">Real</tspan></text><text
         id="text60"
         xml:space="preserve"
         transform="matrix(1.3333333,0,0,1.3333333,1134.8133,441.69333)"
         clip-path="url(#clipPath61)"><tspan
           id="tspan60"
           style="font-variant:normal;font-weight:normal;font-size:14.04px;font-family:Arial;writing-mode:lr-tb;fill:#191919;fill-opacity:1;fill-rule:nonzero;stroke:none"
           x="0"
           y="0">-</tspan></text><text
         id="text61"
         xml:space="preserve"
         transform="matrix(1.3333333,0,0,1.3333333,1141.0533,441.69333)"
         clip-path="url(#clipPath62)"><tspan
           id="tspan61"
           style="font-variant:normal;font-weight:normal;font-size:14.04px;font-family:Arial;writing-mode:lr-tb;fill:#191919;fill-opacity:1;fill-rule:nonzero;stroke:none"
           x="0"
           dx="0 -0.53351998 0 -0.056159999"
           y="0">Time</tspan></text><text
         id="text62"
         xml:space="preserve"
         transform="matrix(1.3333333,0,0,1.3333333,1154.8133,464.09333)"
         clip-path="url(#clipPath63)"><tspan
           id="tspan62"
           style="font-variant:normal;font-weight:normal;font-size:14.04px;font-family:Arial;writing-mode:lr-tb;fill:#191919;fill-opacity:1;fill-rule:nonzero;stroke:none"
           x="0"
           y="0">OS</tspan></text></g><g
       id="g65"><path
         id="path66"
         d="m 796.15,148.86 -36.4,51.83 1.23,0.86 36.4,-51.83 z m -38.24,50.54 c -0.95,1.35 -0.62,3.22 0.73,4.18 1.36,0.95 3.23,0.62 4.18,-0.73 0.95,-1.36 0.63,-3.23 -0.73,-4.18 -1.36,-0.96 -3.23,-0.63 -4.18,0.73 z"
         style="fill:#6b3881;fill-opacity:1;fill-rule:nonzero;stroke:none"
         transform="matrix(1.3333333,0,0,-1.3333333,0,720)" /></g><g
       id="g70"><path
         id="path71"
         d="m 738.27,363.18 c 0,11.74 9.52,21.26 21.26,21.26 11.74,0 21.26,-9.52 21.26,-21.26 0,-11.74 -9.52,-21.26 -21.26,-21.26 -11.74,0 -21.26,9.52 -21.26,21.26 z"
         style="fill:#c32e15;fill-opacity:0.50196;fill-rule:evenodd;stroke:none"
         transform="matrix(1.3333333,0,0,-1.3333333,0,720)" /></g><g
       id="g71"><path
         id="path72"
         d="m 738.27,203.39 c 0,11.74 9.52,21.26 21.26,21.26 11.74,0 21.26,-9.52 21.26,-21.26 0,-11.74 -9.52,-21.26 -21.26,-21.26 -11.74,0 -21.26,9.52 -21.26,21.26 z"
         style="fill:#c32e15;fill-opacity:0.50196;fill-rule:evenodd;stroke:none"
         transform="matrix(1.3333333,0,0,-1.3333333,0,720)" /></g><g
       id="g57"><text
         id="text57"
         xml:space="preserve"
         transform="matrix(1.3333333,0,0,1.3333333,849.50667,441.41333)"
         clip-path="url(#clipPath58)"><tspan
           id="tspan57"
           style="font-variant:normal;font-weight:normal;font-size:14.04px;font-family:Arial;writing-mode:lr-tb;fill:#191919;fill-opacity:1;fill-rule:nonzero;stroke:none"
           x="0"
           dx="0 0 -0.056159999"
           y="0">Embedded</tspan></text><text
         id="text58"
         xml:space="preserve"
         transform="matrix(1.3333333,0,0,1.3333333,849.50667,463.81333)"
         clip-path="url(#clipPath59)"><tspan
           id="tspan58"
           style="font-variant:normal;font-weight:normal;font-size:14.04px;font-family:Arial;writing-mode:lr-tb;fill:#191919;fill-opacity:1;fill-rule:nonzero;stroke:none"
           x="0"
           y="0">OS</tspan></text></g><g
       id="g45"><text
         id="text45"
         xml:space="preserve"
         transform="matrix(1.3333333,0,0,1.3333333,848.82667,226.90667)"
         clip-path="url(#clipPath46)"><tspan
           id="tspan45"
           style="font-variant:normal;font-weight:normal;font-size:14.04px;font-family:Arial;writing-mode:lr-tb;fill:#191919;fill-opacity:1;fill-rule:nonzero;stroke:none"
           x="0"
           dx="0 0 -0.056159999"
           y="0">Embedded</tspan></text><text
         id="text46"
         xml:space="preserve"
         transform="matrix(1.3333333,0,0,1.3333333,848.82667,249.30667)"
         clip-path="url(#clipPath47)"><tspan
           id="tspan46"
           style="font-variant:normal;font-weight:normal;font-size:14.064px;font-family:Arial;writing-mode:lr-tb;fill:#191919;fill-opacity:1;fill-rule:nonzero;stroke:none"
           x="0"
           dx="0 0 -0.21096 0.028128 0.042192001 0 -0.098448001"
           y="0">Systems</tspan></text></g></g></svg>
